<svg width="16" height="16" viewBox="0 0 16 16" fill="none" xmlns="http://www.w3.org/2000/svg">
<path d="M10.544 0.888916C9.89552 5.94669 10.0866 7.43647 5.55952 8.00003C10.0103 8.69069 10.0743 10.2489 10.544 15.1111C11.1633 10.2205 11.0428 8.75558 15.5294 8.00003C11.008 7.44536 11.1595 5.94136 10.544 0.888916ZM3.16046 1.01958C2.81129 3.74847 2.91388 4.55292 0.470581 4.85692C2.87246 5.23025 2.90729 6.07025 3.16046 8.69425C3.49458 6.05425 3.42964 5.26403 5.85129 4.85692C3.41082 4.55736 3.4927 3.7458 3.16046 1.01958ZM5.6094 8.68092C5.3647 10.5947 5.43623 11.1582 3.72329 11.3716C5.40799 11.6329 5.43152 12.2222 5.6094 14.0622C5.8447 12.2116 5.79764 11.6569 7.49552 11.3716C5.7854 11.1618 5.84282 10.5929 5.6094 8.68092Z" fill="#011F3A" stroke="#011F3A" stroke-width="0.621" stroke-linecap="square"/>
</svg>
